<?xml version="1.0" standalone="no"?>
<!DOCTYPE svg PUBLIC "-//W3C//DTD SVG 20010904//EN"
 "http://www.w3.org/TR/2001/REC-SVG-20010904/DTD/svg10.dtd">
<svg version="1.0" xmlns="http://www.w3.org/2000/svg"
 width="800.000000pt" height="450.000000pt" viewBox="0 0 800.000000 450.000000"
 preserveAspectRatio="xMidYMid meet">

<g transform="translate(0.000000,450.000000) scale(0.100000,-0.100000)"
fill="#000000" stroke="none">
<path d="M0 2250 l0 -2250 435 0 c283 0 435 3 435 10 0 6 -6 10 -13 10 -7 0
-18 9 -25 20 -7 11 -21 20 -32 20 -10 0 -25 8 -32 19 -7 10 -24 22 -38 26 -13
4 -72 56 -130 115 -58 59 -116 110 -128 114 -18 6 -22 15 -22 47 0 32 -3 39
-20 39 -17 0 -20 7 -20 40 0 22 5 40 10 40 6 0 10 15 10 34 0 52 5 59 91 127
43 34 79 66 79 70 0 5 10 9 21 9 12 0 37 17 56 37 25 28 36 34 42 25 6 -10 10
-10 21 3 7 8 21 15 32 15 10 0 21 7 24 15 4 10 19 15 43 15 20 0 54 9 75 21
31 16 41 18 47 8 6 -10 12 -10 27 4 21 19 204 47 309 47 54 0 63 -3 63 -18 0
-27 35 -117 59 -150 26 -37 90 -102 101 -102 4 0 13 -7 20 -15 23 -28 138 -88
303 -159 60 -26 189 -66 212 -66 13 0 25 -3 27 -7 8 -20 430 -106 673 -138 66
-9 149 -20 185 -25 36 -5 164 -18 285 -27 315 -26 1169 -25 1470 0 531 45 965
121 1268 222 190 63 392 158 428 201 6 8 15 14 19 14 12 0 70 59 70 71 0 5 6
9 13 9 8 0 23 21 36 47 17 39 20 54 12 81 -8 25 -7 32 5 32 20 0 17 14 -6 35
-11 10 -20 24 -20 32 0 7 -11 13 -25 13 -14 0 -35 9 -47 20 -12 11 -28 20 -35
20 -7 0 -29 9 -48 20 -20 11 -40 18 -44 15 -5 -2 -11 23 -15 58 -11 104 -63
156 -238 241 l-108 51 1 50 c1 40 3 45 9 25 4 -14 9 -18 9 -10 1 9 4 11 9 5 9
-13 95 -32 232 -51 103 -14 202 -34 290 -60 25 -7 90 -25 145 -40 55 -15 110
-35 123 -45 12 -9 40 -20 62 -24 21 -4 41 -13 44 -21 3 -8 14 -14 25 -14 11 0
33 -17 50 -39 21 -27 42 -41 66 -45 22 -4 42 -17 55 -36 12 -17 33 -33 48 -37
15 -3 33 -15 40 -25 7 -10 22 -18 32 -18 11 0 25 -9 32 -20 7 -11 21 -20 30
-20 10 0 18 -4 18 -9 0 -15 60 -71 76 -71 10 0 14 -12 14 -40 0 -29 4 -40 15
-40 11 0 15 -11 15 -40 0 -33 3 -40 20 -40 13 0 20 -7 20 -20 0 -17 7 -20 40
-20 38 0 40 -2 40 -29 0 -28 49 -91 71 -91 5 0 9 -35 9 -79 0 -75 -1 -80 -33
-115 -18 -20 -39 -36 -47 -36 -7 0 -11 -3 -8 -6 7 -7 -68 -84 -81 -84 -6 0
-28 -18 -48 -40 -21 -22 -41 -40 -44 -40 -4 0 -26 -18 -50 -40 -24 -22 -52
-40 -61 -40 -9 0 -21 -6 -25 -13 -11 -17 -58 -37 -88 -37 -13 0 -31 -7 -40
-16 -8 -9 -22 -13 -30 -10 -9 3 -12 0 -8 -10 4 -12 75 -14 484 -14 l479 0 0
2250 0 2250 -4000 0 -4000 0 0 -2250z m2700 2098 l82 -98 -45 -50 c-114 -127
-109 -328 12 -449 47 -47 96 -74 168 -90 43 -11 62 -10 115 4 34 8 80 27 101
41 27 18 42 22 51 15 6 -5 43 -55 81 -111 66 -96 68 -101 49 -115 -43 -33
-164 -84 -237 -101 -75 -17 -77 -18 -53 -31 14 -8 28 -24 31 -36 7 -27 22
-1688 17 -1772 -5 -75 -51 -147 -92 -142 -22 2 -24 6 -25 57 -4 184 -57 888
-75 985 -5 28 -12 229 -15 447 -7 399 -3 468 28 468 28 0 -13 18 -68 30 -124
26 -257 112 -339 219 -95 124 -131 240 -124 406 8 168 57 280 175 398 56 57
50 60 163 -75z m2169 -955 c-29 -4 -28 -2 -45 -185 -4 -38 -11 -68 -15 -68 -5
0 -10 -17 -10 -37 -1 -21 -5 -51 -9 -68 l-8 -30 -1 30 c-1 20 -4 26 -10 17 -8
-13 -19 81 -23 197 -1 47 -3 43 -8 -29 l-6 -85 -2 117 c-1 64 1 123 4 132 5
13 21 16 83 15 42 -1 64 -4 50 -6z m-2260 -443 c34 -22 60 -44 57 -48 -3 -5
-1 -25 4 -45 4 -21 4 -50 0 -65 -8 -26 -8 -26 -9 8 -3 70 -49 139 -116 174
-16 9 -23 16 -14 16 9 0 44 -18 78 -40z m-223 -205 c17 -26 10 -55 -9 -36 -19
19 -30 12 -25 -14 5 -25 -5 -34 -17 -15 -4 6 0 22 9 35 15 22 14 24 -4 30 -28
9 -25 25 5 25 15 0 31 -9 41 -25z m20 -72 c-10 -10 -19 5 -10 18 6 11 8 11 12
0 2 -7 1 -15 -2 -18z m3080 -132 c53 -37 54 -37 54 -11 0 19 7 20 165 20 161
0 167 -1 218 -27 l52 -28 -185 -3 -185 -2 3 -60 c8 -141 -45 -356 -122 -494
-50 -89 -143 -204 -210 -257 -30 -24 -55 -52 -56 -62 -1 -40 -87 -179 -160
-257 l-42 -45 46 65 c124 175 170 270 133 270 -11 0 -18 13 -23 36 -7 36 -5
39 64 100 38 35 92 94 120 131 49 67 131 218 133 245 0 8 2 9 5 2 3 -6 -6 -40
-19 -75 -14 -37 -21 -72 -17 -83 6 -18 8 -17 32 8 51 55 106 271 95 369 -6 48
-27 91 -27 55 0 -26 -40 -48 -88 -48 -23 0 -59 -7 -80 -16 -20 -9 -66 -18
-102 -19 -36 -2 -70 -4 -77 -4 -7 -1 -10 -8 -7 -18 5 -15 4 -16 -5 -3 -18 25
-13 107 9 150 51 99 181 128 276 61z m-1861 -126 c-16 -8 -40 -14 -52 -15 -45
0 -31 -17 20 -24 68 -8 377 -8 456 0 61 7 85 24 34 24 -16 1 -41 7 -58 15 -29
14 -27 14 35 9 79 -8 110 -19 110 -38 0 -26 -69 -37 -265 -43 -203 -6 -390 8
-413 31 -26 25 40 53 133 54 l30 0 -30 -13z m-190 -141 c-17 -13 -18 -16 -5
-24 58 -36 762 -32 798 5 3 3 -3 12 -14 19 -29 22 -11 29 30 12 39 -16 47 -40
19 -55 -90 -47 -660 -52 -840 -8 -62 15 -68 39 -16 60 43 17 58 12 28 -9z
m2079 -68 c-3 -15 -8 -25 -11 -23 -2 3 -1 17 3 31 3 15 8 25 11 23 2 -3 1 -17
-3 -31z m-1186 -38 c48 -39 -37 -68 -253 -88 -255 -23 -646 -1 -742 43 -27 12
-29 20 -7 41 22 22 43 20 37 -3 -7 -26 33 -36 192 -52 222 -22 699 2 734 36 3
3 0 15 -8 26 -11 19 -10 20 11 14 13 -4 29 -12 36 -17z m30 -130 c63 -63 -135
-102 -523 -103 -251 0 -386 11 -492 41 -58 16 -71 28 -53 49 16 19 30 19 30 1
0 -39 133 -58 445 -63 365 -7 563 18 559 70 -2 20 17 22 34 5z m683 -76 c15
-27 24 -31 80 -37 35 -4 73 -11 84 -15 37 -15 -29 -30 -128 -30 -149 0 -207
17 -139 41 19 6 33 23 46 56 21 50 22 49 57 -15z m-653 -70 c-4 -24 -92 -51
-218 -68 -125 -16 -523 -19 -655 -4 -117 14 -221 38 -236 56 -6 7 -8 22 -4 31
6 17 7 17 19 1 40 -55 174 -73 531 -73 367 1 525 25 525 81 0 12 4 13 21 4 11
-6 19 -19 17 -28z m557 -202 c5 -85 -37 -235 -63 -225 -11 4 -14 3 -7 -4 6 -5
21 -11 35 -14 14 -2 7 -2 -15 1 -22 3 -69 3 -105 1 -124 -8 -265 -3 -328 10
-59 13 -63 16 -59 38 2 13 0 26 -4 29 -5 3 -9 14 -9 26 0 18 4 20 33 14 17 -4
67 -11 111 -16 43 -5 80 -11 82 -13 2 -2 5 -14 7 -28 3 -19 11 -25 36 -27 31
-3 33 -2 29 29 l-3 33 69 13 c38 7 72 16 76 20 4 4 22 49 40 98 18 50 37 101
43 115 l10 25 9 -30 c5 -16 11 -59 13 -95z m-605 46 c0 -10 -151 -48 -228 -58
-146 -17 -461 -14 -595 7 -139 21 -151 31 -16 13 52 -6 193 -12 314 -12 219 0
355 12 450 38 55 15 75 18 75 12z m90 -86 c11 -7 2 -10 -32 -10 -27 0 -48 5
-48 10 0 13 60 13 80 0z m-82 -28 c2 -7 -2 -10 -12 -6 -9 3 -16 11 -16 16 0
13 23 5 28 -10z m-855 -52 c116 -55 224 -203 228 -310 3 -135 -5 -155 -50
-117 -43 36 -162 67 -323 84 -53 6 -78 5 -78 -2 0 -5 -5 -3 -11 5 -8 12 -12
12 -16 2 -14 -34 -130 170 -140 247 -5 34 -2 40 28 62 62 44 125 60 224 56 68
-3 102 -9 138 -27z m1187 0 c0 -5 -6 -10 -12 -10 -7 0 -23 -3 -35 -6 -13 -4
-23 -2 -23 4 0 11 20 19 53 21 9 0 17 -3 17 -9z m-441 -24 c35 -1 45 -5 52
-23 11 -31 -28 -44 -48 -17 -12 16 -15 17 -23 4 -5 -8 -10 -18 -10 -23 0 -6
-54 16 -68 28 -2 2 3 13 10 24 8 14 18 19 28 14 8 -3 35 -7 59 -7z m-2129 -76
c0 -22 -5 -30 -17 -29 -11 0 -13 3 -5 6 6 2 12 16 12 29 0 13 2 24 5 24 3 0 5
-13 5 -30z m-170 -34 c0 -3 -4 -8 -10 -11 -5 -3 -10 -1 -10 4 0 6 5 11 10 11
6 0 10 -2 10 -4z m130 -1 c0 -2 -30 -13 -66 -25 -91 -28 -200 -80 -264 -126
-30 -21 -51 -33 -47 -27 5 7 4 21 -2 30 -8 14 -9 11 -6 -15 4 -38 -31 -83 -48
-60 -5 9 -7 6 -3 -7 3 -11 1 -36 -4 -55 -9 -34 -9 -34 -8 -5 0 50 -3 62 -13
35 -8 -22 -8 -21 -4 8 4 30 3 32 -25 32 -37 0 -38 12 -5 38 14 11 25 27 25 35
0 15 47 37 79 37 25 0 101 32 96 40 -3 5 14 7 37 6 24 -1 49 4 56 11 7 7 23
13 35 14 12 0 47 8 77 19 55 18 90 24 90 15z m2780 -143 c0 -5 -14 -35 -32
-67 -25 -47 -29 -61 -19 -76 10 -17 8 -19 -13 -19 -22 0 -24 3 -17 28 20 70
81 170 81 134z m-370 -192 c0 -5 -7 -10 -15 -10 -8 0 -15 5 -15 10 0 6 7 10
15 10 8 0 15 -4 15 -10z m297 -26 c-3 -3 -12 -4 -19 -1 -8 3 -5 6 6 6 11 1 17
-2 13 -5z m-665 -441 c-73 -2 -190 -2 -260 0 -70 1 -10 3 133 3 143 0 200 -2
127 -3z"/>
<path d="M1825 1360 c4 -6 11 -8 16 -5 14 9 11 15 -7 15 -8 0 -12 -5 -9 -10z"/>
<path d="M1770 1340 c-8 -5 -12 -11 -10 -14 3 -2 14 2 24 10 22 15 10 19 -14
4z"/>
<path d="M7330 816 c0 -2 7 -9 15 -16 12 -10 15 -10 15 4 0 9 -7 16 -15 16 -8
0 -15 -2 -15 -4z"/>
<path d="M880 10 c0 -5 7 -10 15 -10 8 0 15 5 15 10 0 6 -7 10 -15 10 -8 0
-15 -4 -15 -10z"/>
</g>
</svg>
