<?xml version="1.0" encoding="UTF-8"?>
<svg version="1.1" xmlns="http://www.w3.org/2000/svg" width="200" height="200">
<path d="M0 0 C0.71098469 -0.00467997 1.42196938 -0.00935994 2.15449905 -0.01418173 C4.54296634 -0.02617219 6.93086413 -0.01665905 9.31933594 -0.00723267 C11.02917822 -0.01129658 12.73901788 -0.01663745 14.44885254 -0.02316284 C19.09755363 -0.03686371 23.74605546 -0.0315264 28.39476013 -0.02202559 C33.2540644 -0.01444332 38.11335133 -0.0214706 42.97265625 -0.02618408 C51.1338203 -0.03164582 59.29490298 -0.02443906 67.45605469 -0.01016235 C76.89860684 0.00616496 86.34096468 0.00087675 95.78351212 -0.01564157 C103.88293245 -0.02924453 111.9822942 -0.03118193 120.08172226 -0.02332556 C124.92255591 -0.01864249 129.76329816 -0.01804156 134.60412598 -0.02793503 C139.15464905 -0.03658513 143.704921 -0.03061873 148.25541687 -0.01325226 C149.92798953 -0.00927692 151.60058323 -0.01043928 153.27314758 -0.01704025 C155.55152677 -0.02520481 157.82909477 -0.01499682 160.10742188 0 C161.38389587 0.00113108 162.66036987 0.00226215 163.9755249 0.00342751 C167.05371094 0.38095093 167.05371094 0.38095093 168.963624 1.6699276 C170.92705655 4.75177252 170.47707067 8.39273877 170.45776367 11.93563843 C170.46462692 12.80907898 170.47149017 13.68251953 170.4785614 14.58242798 C170.49688469 17.47376696 170.4929844 20.36456626 170.48730469 23.25595093 C170.49186353 25.26230039 170.4971682 27.26864829 170.50318909 29.2749939 C170.51213083 33.48160137 170.5096846 37.6880191 170.49975586 41.8946228 C170.48825927 47.29211659 170.50848296 52.68895684 170.537673 58.08636475 C170.55599533 62.22987037 170.55575057 66.3732182 170.55003548 70.51675415 C170.54988181 72.50711993 170.55596379 74.4974961 170.56832695 76.48782349 C170.58316203 79.267724 170.57261577 82.04640187 170.55541992 84.82626343 C170.56992187 86.06536469 170.56992187 86.06536469 170.5847168 87.32949829 C170.5431577 90.52884675 170.49925601 92.78246445 168.55262756 95.39730835 C164.91183384 96.83042528 161.4188077 96.74949445 157.56933594 96.67391968 C156.75374207 96.66967484 155.93814819 96.66542999 155.09783936 96.66105652 C152.4994571 96.64429808 149.90185775 96.6066519 147.30371094 96.56845093 C145.53939924 96.55340039 143.77507536 96.53971263 142.01074219 96.5274353 C137.69143129 96.49440394 133.37270374 96.44264179 129.05371094 96.38095093 C129.06259338 97.37431458 129.07147583 98.36767822 129.08062744 99.3911438 C129.16168835 108.74930131 129.2216643 118.10738766 129.26095963 127.4658165 C129.28184094 132.27719496 129.31016848 137.08829018 129.35546875 141.89950562 C129.39890716 146.54199256 129.42284394 151.18420694 129.43321991 155.82688141 C129.4406149 157.59875022 129.45505556 159.37060399 129.47663116 161.14235687 C129.50563909 163.62293314 129.50966813 166.10238097 129.5078125 168.58309937 C129.5221936 169.31677734 129.53657471 170.05045532 129.5513916 170.80636597 C129.5255779 173.99223117 129.2284756 176.09234268 127.5670929 178.83596802 C123.93923415 181.06602292 120.51670937 180.93919924 116.38549805 180.89852905 C115.07511818 180.90904297 115.07511818 180.90904297 113.73826599 180.91976929 C110.85220508 180.93736722 107.96712547 180.92572123 105.08105469 180.91220093 C103.07613435 180.91489508 101.07121529 180.91877686 99.06629944 180.92379761 C94.86560621 180.92969489 90.66525328 180.92112129 86.46459961 180.9024353 C81.07495299 180.87963103 75.68610244 180.89277688 70.29648495 180.91672516 C66.15725176 180.93116431 62.01820802 180.92658604 57.87896919 180.91621399 C55.89140288 180.91354226 53.90381947 180.91683209 51.91627312 180.9261322 C49.14122677 180.93626842 46.36747869 180.92083879 43.5925293 180.89852905 C42.76803284 180.90662598 41.94353638 180.9147229 41.09405518 180.92306519 C37.87286113 180.87498158 35.64654673 180.83609188 33.0413208 178.83596802 C31.66509667 175.41492709 31.65980198 172.21092358 31.71313477 168.58309937 C31.71247765 167.41179474 31.71247765 167.41179474 31.71180725 166.21682739 C31.71389386 163.64107075 31.73721843 161.06596858 31.76074219 158.49032593 C31.76633861 156.70242671 31.77060849 154.91452289 31.77360535 153.12661743 C31.78505051 148.42472596 31.81451487 143.72311325 31.84771729 139.02133179 C31.87842524 134.22197236 31.89211223 129.42256782 31.90722656 124.62313843 C31.93938488 115.20895357 31.99057728 105.79497544 32.05371094 96.38095093 C30.92352539 96.39666138 29.79333984 96.41237183 28.62890625 96.42855835 C24.43203877 96.48289688 20.23520233 96.51731524 16.03808594 96.54574585 C14.22227752 96.56082354 12.40650546 96.58128891 10.59082031 96.60726929 C7.97940086 96.64369773 5.36846329 96.66068731 2.75683594 96.67391968 C1.54099823 96.69714546 1.54099823 96.69714546 0.30059814 96.72084045 C-2.8472267 96.72177837 -5.51328531 96.55046572 -8.45887756 95.39730835 C-10.84782395 92.15881667 -10.49324919 88.69269095 -10.44799805 84.82626343 C-10.45340103 83.95282288 -10.45880402 83.07938232 -10.46437073 82.17947388 C-10.47689347 79.28795645 -10.46034357 76.39742784 -10.44238281 73.50595093 C-10.44253772 71.49960274 -10.44402529 69.49325425 -10.4467926 67.48690796 C-10.44817819 63.28023057 -10.43559183 59.07389348 -10.4128418 54.86727905 C-10.3844568 49.46985714 -10.38719242 44.07300087 -10.39993191 38.67553711 C-10.40688049 34.53202466 -10.39910919 30.3886434 -10.38667488 26.24514771 C-10.38215239 24.25479637 -10.38183051 22.264431 -10.38574028 20.27407837 C-10.38864445 17.49430378 -10.37218371 14.71531396 -10.3503418 11.93563843 C-10.35484344 11.10957092 -10.35934509 10.28350342 -10.36398315 9.43240356 C-10.29190954 3.92344409 -10.29190954 3.92344409 -8.85620213 1.6699276 C-5.94489395 -0.29487823 -3.48549935 0.00308848 0 0 Z M3.05371094 13.38095093 C3.05371094 36.48095093 3.05371094 59.58095093 3.05371094 83.38095093 C26.48371094 83.38095093 49.91371094 83.38095093 74.05371094 83.38095093 C74.05371094 60.28095093 74.05371094 37.18095093 74.05371094 13.38095093 C50.62371094 13.38095093 27.19371094 13.38095093 3.05371094 13.38095093 Z M86.05371094 13.38095093 C86.05371094 36.48095093 86.05371094 59.58095093 86.05371094 83.38095093 C109.48371094 83.38095093 132.91371094 83.38095093 157.05371094 83.38095093 C157.05371094 60.28095093 157.05371094 37.18095093 157.05371094 13.38095093 C133.62371094 13.38095093 110.19371094 13.38095093 86.05371094 13.38095093 Z M45.05371094 96.38095093 C45.05371094 119.81095093 45.05371094 143.24095093 45.05371094 167.38095093 C68.48371094 167.38095093 91.91371094 167.38095093 116.05371094 167.38095093 C116.05371094 143.95095093 116.05371094 120.52095093 116.05371094 96.38095093 C92.62371094 96.38095093 69.19371094 96.38095093 45.05371094 96.38095093 Z " fill="#1C1C1C" transform="translate(19.9462890625,11.619049072265625)"/>
<path d="M0 0 C4.41753374 3.44783121 8.23277138 7.56662541 12.08203125 11.625 C16.96761272 9.64375037 19.93391099 5.7283021 23.44921875 1.9375 C26.27079894 -0.54080189 28.47560242 -1.44973546 32.08203125 -2.375 C35.96680882 0.90278108 35.96680882 0.90278108 36.4609375 4 C35.95397946 7.51212169 34.61710439 8.5654257 32.01953125 10.9375 C28.31738358 14.42427116 24.94168309 17.9934178 21.6875 21.8984375 C18.97845288 24.81181664 17.20494148 26.43176206 13.19921875 27.12109375 C9.11921636 26.47177006 7.02912707 24.5063483 4.20703125 21.6875 C3.69180908 21.18895508 3.17658691 20.69041016 2.64575195 20.17675781 C1.60472018 19.15923478 0.57147442 18.13368146 -0.45361328 17.10009766 C-1.78506947 15.7588742 -3.14500931 14.44607868 -4.5078125 13.13671875 C-9.84965137 7.7009987 -9.84965137 7.7009987 -10.16796875 2.6875 C-8.91796875 -0.375 -8.91796875 -0.375 -7.29296875 -2.0625 C-4.27280771 -2.45988961 -2.54255171 -1.59532656 0 0 Z " fill="#1B1B1B" transform="translate(87.91796875,132.375)"/>
<path d="M0 0 C4.70127227 1.80690648 8.01972418 5.93380923 11.45214844 9.48583984 C12.27070312 10.28957031 13.08925781 11.09330078 13.93261719 11.92138672 C20.65691967 18.74047621 20.65691967 18.74047621 21.07714844 24.79833984 C20.01464844 26.67333984 20.01464844 26.67333984 18.07714844 27.79833984 C15.38964844 28.48583984 15.38964844 28.48583984 12.07714844 27.79833984 C9.9292855 25.99733676 8.07803062 24.0386792 6.17871094 21.97802734 C3.12640441 18.81225218 -0.33331672 16.31865154 -3.92285156 13.79833984 C-4.1484375 14.36166016 -4.37402344 14.92498047 -4.60644531 15.50537109 C-6.29831695 18.45234038 -8.42683728 20.25864396 -10.98535156 22.48583984 C-12.33306641 23.66726562 -12.33306641 23.66726562 -13.70800781 24.87255859 C-14.43890625 25.50806641 -15.16980469 26.14357422 -15.92285156 26.79833984 C-16.25285156 27.12833984 -16.58285156 27.45833984 -16.92285156 27.79833984 C-22.19850549 28.25709236 -22.19850549 28.25709236 -24.79785156 26.61083984 C-26.34445433 24.11909095 -26.27641719 22.70213674 -25.92285156 19.79833984 C-24.21044922 17.50244141 -24.21044922 17.50244141 -21.83691406 15.18896484 C-20.56460938 13.9340625 -20.56460938 13.9340625 -19.26660156 12.65380859 C-18.36941406 11.79400391 -17.47222656 10.93419922 -16.54785156 10.04833984 C-15.65839844 9.17306641 -14.76894531 8.29779297 -13.85253906 7.39599609 C-5.38599983 -0.8781218 -5.38599983 -0.8781218 0 0 Z " fill="#1A1A1A" transform="translate(59.9228515625,46.20166015625)"/>
<path d="M0 0 C2.42529297 1.77832031 2.42529297 1.77832031 4.7421875 4.078125 C5.58007812 4.90957031 6.41796875 5.74101563 7.28125 6.59765625 C8.1371875 7.47292969 8.993125 8.34820312 9.875 9.25 C10.75414062 10.10980469 11.63328125 10.96960938 12.5390625 11.85546875 C13.36921875 12.69207031 14.199375 13.52867188 15.0546875 14.390625 C15.81249512 15.15407227 16.57030273 15.91751953 17.35107422 16.70410156 C19.2959341 19.41204683 19.44470766 20.73698323 19 24 C17.40238809 26.57393029 16.249454 26.93618619 13.3125 27.6875 C8.79203688 26.74929067 6.96711397 24.36854416 3.90234375 21.0390625 C1.92937666 18.82219333 1.92937666 18.82219333 -1 16.625 C-1.66 16.08875 -2.32 15.5525 -3 15 C-3 14.34 -3 13.68 -3 13 C-4.73202093 14.39229003 -6.46048484 15.78900556 -8.1875 17.1875 C-9.63189453 18.35345703 -9.63189453 18.35345703 -11.10546875 19.54296875 C-14.049607 21.95904065 -14.049607 21.95904065 -16.66796875 24.76953125 C-19 27 -19 27 -22.125 27.5 C-25 27 -25 27 -26.9375 25.875 C-28.56508458 23.00279191 -27.8043053 21.13330842 -27 18 C-25.28173828 15.68237305 -25.28173828 15.68237305 -23.0703125 13.51171875 C-21.87728516 12.32932617 -21.87728516 12.32932617 -20.66015625 11.12304688 C-19.82355469 10.31931641 -18.98695312 9.51558594 -18.125 8.6875 C-16.88169922 7.45290039 -16.88169922 7.45290039 -15.61328125 6.19335938 C-7.32634693 -1.92622974 -7.32634693 -1.92622974 0 0 Z " fill="#1A1A1A" transform="translate(144,47)"/>
</svg>
